<svg width="16" height="16" viewBox="0 0 16 16" fill="none" xmlns="http://www.w3.org/2000/svg">
<g id="vuesax/outline/heart">
<g id="vuesax/outline/heart_2">
<g id="heart">
<path id="Vector" d="M7.99967 14.4336C7.79301 14.4336 7.59301 14.4069 7.42634 14.3469C4.87967 13.4736 0.833008 10.3736 0.833008 5.79356C0.833008 3.46023 2.71967 1.56689 5.03967 1.56689C6.16634 1.56689 7.21967 2.00689 7.99967 2.79356C8.77967 2.00689 9.83301 1.56689 10.9597 1.56689C13.2797 1.56689 15.1663 3.46689 15.1663 5.79356C15.1663 10.3802 11.1197 13.4736 8.57301 14.3469C8.40634 14.4069 8.20634 14.4336 7.99967 14.4336ZM5.03967 2.56689C3.27301 2.56689 1.83301 4.01356 1.83301 5.79356C1.83301 10.3469 6.21301 12.8802 7.75301 13.4069C7.87301 13.4469 8.13301 13.4469 8.25301 13.4069C9.78634 12.8802 14.173 10.3536 14.173 5.79356C14.173 4.01356 12.733 2.56689 10.9663 2.56689C9.95301 2.56689 9.01301 3.04023 8.40634 3.86023C8.21967 4.11356 7.79301 4.11356 7.60634 3.86023C6.98634 3.03356 6.05301 2.56689 5.03967 2.56689Z" fill="#ADADAD"/>
</g>
</g>
</g>
</svg>
