<svg width="16" height="16" viewBox="0 0 16 16" fill="none" xmlns="http://www.w3.org/2000/svg">
<g id="vuesax/outline/heart">
<g id="vuesax/outline/heart_2">
<g id="heart">
<path id="Vector" d="M7.99967 14.4331C7.79301 14.4331 7.59301 14.4064 7.42634 14.3464C4.87967 13.4731 0.833008 10.3731 0.833008 5.79307C0.833008 3.45974 2.71967 1.56641 5.03967 1.56641C6.16634 1.56641 7.21967 2.00641 7.99967 2.79307C8.77967 2.00641 9.83301 1.56641 10.9597 1.56641C13.2797 1.56641 15.1663 3.46641 15.1663 5.79307C15.1663 10.3797 11.1197 13.4731 8.57301 14.3464C8.40634 14.4064 8.20634 14.4331 7.99967 14.4331ZM5.03967 2.56641C3.27301 2.56641 1.83301 4.01307 1.83301 5.79307C1.83301 10.3464 6.21301 12.8797 7.75301 13.4064C7.87301 13.4464 8.13301 13.4464 8.25301 13.4064C9.78634 12.8797 14.173 10.3531 14.173 5.79307C14.173 4.01307 12.733 2.56641 10.9663 2.56641C9.95301 2.56641 9.01301 3.03974 8.40634 3.85974C8.21967 4.11307 7.79301 4.11307 7.60634 3.85974C6.98634 3.03307 6.05301 2.56641 5.03967 2.56641Z" fill="#353535"/>
</g>
</g>
</g>
</svg>
