<svg width="22" height="23" viewBox="0 0 22 23" fill="none" xmlns="http://www.w3.org/2000/svg">
<path d="M6.68043 0.939941C3.24002 0.939941 0.44043 3.73953 0.44043 7.17994V15.8199C0.44043 19.2603 3.24002 22.0599 6.68043 22.0599H15.3204C18.7608 22.0599 21.5604 19.2603 21.5604 15.8199V7.17994C21.5604 3.73953 18.7608 0.939941 15.3204 0.939941H6.68043ZM6.68043 1.89994H15.3204C18.2419 1.89994 20.6004 4.25843 20.6004 7.17994V15.8199C20.6004 18.7415 18.2419 21.0999 15.3204 21.0999H6.68043C3.75892 21.0999 1.40043 18.7415 1.40043 15.8199V7.17994C1.40043 4.25843 3.75892 1.89994 6.68043 1.89994ZM16.7604 4.77994C16.5058 4.77994 16.2616 4.88108 16.0816 5.06112C15.9016 5.24115 15.8004 5.48533 15.8004 5.73994C15.8004 5.99455 15.9016 6.23873 16.0816 6.41876C16.2616 6.5988 16.5058 6.69994 16.7604 6.69994C17.015 6.69994 17.2592 6.5988 17.4393 6.41876C17.6193 6.23873 17.7204 5.99455 17.7204 5.73994C17.7204 5.48533 17.6193 5.24115 17.4393 5.06112C17.2592 4.88108 17.015 4.77994 16.7604 4.77994ZM11.0004 6.21994C8.09005 6.21994 5.72043 8.58956 5.72043 11.4999C5.72043 14.4103 8.09005 16.7799 11.0004 16.7799C13.9108 16.7799 16.2804 14.4103 16.2804 11.4999C16.2804 8.58956 13.9108 6.21994 11.0004 6.21994ZM11.0004 7.17994C13.392 7.17994 15.3204 9.10839 15.3204 11.4999C15.3204 13.8915 13.392 15.8199 11.0004 15.8199C8.60887 15.8199 6.68043 13.8915 6.68043 11.4999C6.68043 9.10839 8.60887 7.17994 11.0004 7.17994Z" fill="#EDEDED"/>
</svg>
