<svg width="16" height="16" viewBox="0 0 16 16" fill="none" xmlns="http://www.w3.org/2000/svg">
<g id="vuesax/outline/location">
<g id="vuesax/outline/location_2">
<g id="location">
<path id="Vector" d="M7.99992 9.4463C6.57992 9.4463 5.41992 8.29297 5.41992 6.8663C5.41992 5.43964 6.57992 4.29297 7.99992 4.29297C9.41992 4.29297 10.5799 5.4463 10.5799 6.87297C10.5799 8.29964 9.41992 9.4463 7.99992 9.4463ZM7.99992 5.29297C7.13326 5.29297 6.41992 5.99964 6.41992 6.87297C6.41992 7.7463 7.12659 8.45297 7.99992 8.45297C8.87326 8.45297 9.57992 7.7463 9.57992 6.87297C9.57992 5.99964 8.86659 5.29297 7.99992 5.29297Z" fill="#353535"/>
<path id="Vector_2" d="M8.00012 15.173C7.01345 15.173 6.02012 14.7997 5.24678 14.0597C3.28012 12.1663 1.10678 9.14634 1.92678 5.55301C2.66678 2.29301 5.51345 0.833008 8.00012 0.833008C8.00012 0.833008 8.00012 0.833008 8.00678 0.833008C10.4935 0.833008 13.3401 2.29301 14.0801 5.55967C14.8935 9.15301 12.7201 12.1663 10.7534 14.0597C9.98012 14.7997 8.98678 15.173 8.00012 15.173ZM8.00012 1.83301C6.06012 1.83301 3.56678 2.86634 2.90678 5.77301C2.18678 8.91301 4.16012 11.6197 5.94678 13.333C7.10012 14.4463 8.90678 14.4463 10.0601 13.333C11.8401 11.6197 13.8134 8.91301 13.1068 5.77301C12.4401 2.86634 9.94012 1.83301 8.00012 1.83301Z" fill="#353535"/>
</g>
</g>
</g>
</svg>
