<svg width="22" height="20" viewBox="0 0 22 20" fill="none" xmlns="http://www.w3.org/2000/svg">
<path d="M20.3008 0.373482C20.067 0.383739 19.8394 0.448805 19.6342 0.530982C19.4311 0.61261 18.2617 1.11173 16.5348 1.85005C14.808 2.58836 12.5632 3.54981 10.338 4.50317C5.88753 6.4099 1.51421 8.28598 1.51421 8.28598L1.54609 8.27379C1.54609 8.27379 1.28214 8.36202 1.01452 8.54848C0.880719 8.64171 0.736766 8.76207 0.6189 8.93754C0.501033 9.11302 0.414864 9.3617 0.447337 9.62473C0.561396 10.5486 1.5189 10.8107 1.5189 10.8107L1.52265 10.8125L5.79577 12.275C5.90472 12.6385 7.09183 16.6006 7.35296 17.4397C7.49718 17.9036 7.63216 18.1712 7.77296 18.3538C7.84342 18.4451 7.91726 18.5158 7.9989 18.5675C8.03134 18.5881 8.06545 18.6035 8.09921 18.6172H8.10109C8.10523 18.6191 8.10914 18.6192 8.11327 18.621L8.10202 18.6182C8.10987 18.6213 8.11761 18.6267 8.12546 18.6294C8.1407 18.6348 8.15003 18.6346 8.16952 18.6388C8.65891 18.8097 9.0639 18.4925 9.0639 18.4925L9.08077 18.4794L11.7058 16.0447L15.9658 19.3663L16.0192 19.3907C16.7649 19.7217 17.4392 19.537 17.8126 19.2332C18.1861 18.9293 18.333 18.5375 18.333 18.5375L18.3489 18.4963L21.4792 2.18098C21.5593 1.81597 21.5707 1.50046 21.4951 1.21536C21.4196 0.930253 21.2361 0.682414 21.0058 0.545045C20.7755 0.407676 20.5346 0.363226 20.3008 0.373482ZM20.3261 1.34942C20.421 1.34502 20.4914 1.35588 20.5136 1.36911C20.5358 1.38234 20.5457 1.3806 20.567 1.46098C20.5883 1.54137 20.5999 1.71068 20.5417 1.97567L20.5398 1.9813L17.4273 18.2019C17.42 18.2183 17.3551 18.3683 17.207 18.4888C17.056 18.6117 16.8879 18.7077 16.442 18.5207L11.7836 14.8879L11.6523 14.7847L11.6495 14.7875L10.2564 13.7422L18.0855 4.5313C18.1456 4.4607 18.184 4.37419 18.1961 4.28223C18.2081 4.19026 18.1932 4.09678 18.1533 4.01309C18.1133 3.92939 18.05 3.85906 17.9709 3.8106C17.8918 3.76215 17.8004 3.73764 17.7076 3.74005C17.617 3.7424 17.529 3.77035 17.4536 3.82067L6.12484 11.3732L1.84515 9.90786C1.84515 9.90786 1.42018 9.67137 1.39984 9.50661C1.39871 9.49748 1.39369 9.50574 1.41577 9.47286C1.43786 9.43998 1.49337 9.38447 1.56296 9.33598C1.70215 9.239 1.86109 9.18036 1.86109 9.18036L1.87702 9.17473L1.89296 9.16817C1.89296 9.16817 6.26651 7.29199 10.7167 5.38536C12.9418 4.43204 15.1862 3.4713 16.9126 2.73317C18.6386 1.99523 19.8858 1.46406 19.9914 1.42161C20.1116 1.37347 20.2311 1.35382 20.3261 1.34942ZM15.1342 6.52067L9.19702 13.506L9.19421 13.5088C9.18494 13.52 9.17618 13.5315 9.16796 13.5435C9.15854 13.5565 9.14978 13.5699 9.14171 13.5838C9.10835 13.6404 9.08698 13.7033 9.0789 13.7685C9.07889 13.7697 9.07889 13.771 9.0789 13.7722L8.30546 17.2504C8.2926 17.2128 8.2836 17.199 8.26984 17.1547V17.1538C8.02418 16.3645 6.90417 12.6278 6.74921 12.111L15.1342 6.52067ZM9.86734 14.6507L10.9342 15.4513L9.36671 16.9044L9.86734 14.6507Z" fill="#EDEDED"/>
</svg>
