<svg width="24" height="24" viewBox="0 0 24 24" fill="none" xmlns="http://www.w3.org/2000/svg">
<g id="vuesax/outline/tick-square">
<g id="vuesax/outline/tick-square_2">
<g id="tick-square">
<path id="Vector" d="M15 22.75H9C3.57 22.75 1.25 20.43 1.25 15V9C1.25 3.57 3.57 1.25 9 1.25H15C20.43 1.25 22.75 3.57 22.75 9V15C22.75 20.43 20.43 22.75 15 22.75ZM9 2.75C4.39 2.75 2.75 4.39 2.75 9V15C2.75 19.61 4.39 21.25 9 21.25H15C19.61 21.25 21.25 19.61 21.25 15V9C21.25 4.39 19.61 2.75 15 2.75H9Z" fill="#CBCBCB"/>
<path id="Vector_2" d="M10.5799 15.58C10.3799 15.58 10.1899 15.5 10.0499 15.36L7.21994 12.53C6.92994 12.24 6.92994 11.76 7.21994 11.47C7.50994 11.18 7.98994 11.18 8.27994 11.47L10.5799 13.77L15.7199 8.62998C16.0099 8.33998 16.4899 8.33998 16.7799 8.62998C17.0699 8.91998 17.0699 9.39998 16.7799 9.68998L11.1099 15.36C10.9699 15.5 10.7799 15.58 10.5799 15.58Z" fill="#CBCBCB"/>
</g>
</g>
</g>
</svg>
