<svg width="24" height="20" viewBox="0 0 24 20" fill="none" xmlns="http://www.w3.org/2000/svg">
<path d="M16.425 0.125C13.5543 0.125 11.22 2.45937 11.22 5.33C11.22 5.5025 11.2631 5.67125 11.28 5.84C7.73059 5.50063 4.59184 3.79063 2.45996 1.175C2.36059 1.04937 2.20684 0.981875 2.04559 0.993125C1.88621 1.00437 1.74371 1.09625 1.66496 1.235C1.21684 2.00563 0.959962 2.8925 0.959962 3.845C0.959962 4.99813 1.37246 6.05375 2.00996 6.92C1.88621 6.86562 1.75121 6.83563 1.63496 6.77C1.48684 6.69125 1.30871 6.695 1.16434 6.78125C1.01996 6.8675 0.931837 7.02313 0.929962 7.19V7.25C0.929962 9.01812 1.84496 10.5538 3.19496 11.495C3.17996 11.4931 3.16496 11.4987 3.14996 11.495C2.98496 11.4669 2.81809 11.525 2.70746 11.6506C2.59684 11.7762 2.56121 11.9506 2.60996 12.11C3.14621 13.7769 4.51496 15.05 6.20996 15.515C4.85996 16.3175 3.29434 16.79 1.60496 16.79C1.23934 16.79 0.888712 16.7712 0.539962 16.73C0.314962 16.7 0.0993369 16.8312 0.0243371 17.045C-0.052538 17.2587 0.0318371 17.4969 0.224962 17.615C2.39059 19.0044 4.96121 19.82 7.72496 19.82C12.2043 19.82 15.7181 17.9487 18.075 15.275C20.4318 12.6012 21.66 9.12875 21.66 5.885C21.66 5.74813 21.6487 5.615 21.645 5.48C22.5243 4.80687 23.31 4.0175 23.925 3.095C24.0468 2.91687 24.0337 2.67875 23.8931 2.51375C23.7543 2.34875 23.52 2.29813 23.325 2.39C23.0775 2.50063 22.7887 2.51187 22.53 2.6C22.8712 2.14437 23.1637 1.65313 23.34 1.1C23.4 0.910625 23.3343 0.7025 23.1787 0.57875C23.0231 0.456875 22.8056 0.441875 22.635 0.545C21.8156 1.03063 20.9081 1.37187 19.95 1.58C19.02 0.71 17.7956 0.125 16.425 0.125ZM16.425 1.085C17.6493 1.085 18.7556 1.60813 19.53 2.435C19.6462 2.555 19.8168 2.60563 19.98 2.57C20.6062 2.44625 21.2006 2.26437 21.78 2.03C21.4462 2.48 21.0337 2.86437 20.55 3.155C20.3306 3.26187 20.2275 3.515 20.3081 3.74563C20.3868 3.97437 20.6268 4.1075 20.865 4.055C21.345 3.99687 21.7725 3.80187 22.23 3.68C21.8193 4.12437 21.3693 4.52563 20.88 4.88C20.7468 4.9775 20.6737 5.135 20.685 5.3C20.6925 5.495 20.7 5.68813 20.7 5.885C20.7 8.885 19.5487 12.1419 17.355 14.63C15.1612 17.1181 11.94 18.86 7.72496 18.86C5.81059 18.86 4.00309 18.4363 2.36996 17.69C4.39496 17.5344 6.26246 16.8181 7.76996 15.635C7.92746 15.5094 7.98934 15.2994 7.92559 15.1081C7.86184 14.9169 7.68559 14.7856 7.48496 14.78C5.90246 14.7519 4.57684 13.8313 3.86996 12.53C3.89621 12.53 3.91871 12.53 3.94496 12.53C4.41934 12.53 4.88809 12.47 5.32496 12.35C5.53496 12.2881 5.67934 12.0931 5.67184 11.8737C5.66434 11.6544 5.50871 11.4669 5.29496 11.42C3.58684 11.075 2.30621 9.68375 2.00996 7.955C2.49371 8.12187 2.98871 8.25313 3.52496 8.27C3.74434 8.28312 3.94309 8.14625 4.01059 7.93812C4.07809 7.73 3.99559 7.50125 3.80996 7.385C2.66996 6.62187 1.91996 5.3225 1.91996 3.845C1.91996 3.2975 2.06246 2.795 2.24996 2.315C4.64996 4.94937 8.00996 6.69875 11.805 6.89C11.955 6.8975 12.1012 6.83562 12.1987 6.72125C12.2962 6.605 12.3337 6.45125 12.3 6.305C12.2268 5.99375 12.18 5.66375 12.18 5.33C12.18 2.97875 14.0737 1.085 16.425 1.085Z" fill="#EDEDED"/>
</svg>
