<svg width="16" height="16" viewBox="0 0 16 16" fill="none" xmlns="http://www.w3.org/2000/svg">
<g id="vuesax/outline/wallet-2">
<g id="vuesax/outline/wallet-2_2">
<g id="wallet-2">
<path id="Vector" d="M8.66699 6.5H4.66699C4.39366 6.5 4.16699 6.27333 4.16699 6C4.16699 5.72667 4.39366 5.5 4.66699 5.5H8.66699C8.94033 5.5 9.16699 5.72667 9.16699 6C9.16699 6.27333 8.94033 6.5 8.66699 6.5Z" fill="#353535"/>
<path id="Vector_2" d="M12.6936 9.86613C11.6869 9.86613 10.8336 9.11946 10.7536 8.15946C10.7003 7.60613 10.9003 7.06614 11.3003 6.67281C11.6336 6.32614 12.1069 6.13281 12.6069 6.13281H14.0003C14.6603 6.15281 15.1669 6.67278 15.1669 7.31278V8.68616C15.1669 9.32616 14.6603 9.84613 14.0203 9.86613H12.6936ZM13.9802 7.13281H12.6136C12.3803 7.13281 12.1669 7.21948 12.0136 7.37948C11.8203 7.56614 11.7269 7.81946 11.7536 8.07279C11.7869 8.51279 12.2136 8.86613 12.6936 8.86613H14.0003C14.0869 8.86613 14.1669 8.78616 14.1669 8.68616V7.31278C14.1669 7.21278 14.0869 7.13948 13.9802 7.13281Z" fill="#353535"/>
<path id="Vector_3" d="M10.6663 14.1663H4.66634C2.37301 14.1663 0.833008 12.6263 0.833008 10.333V5.66634C0.833008 3.61301 2.09966 2.12635 4.06632 1.87968C4.24632 1.85301 4.45301 1.83301 4.66634 1.83301H10.6663C10.8263 1.83301 11.033 1.83967 11.2463 1.87301C13.213 2.09967 14.4997 3.59301 14.4997 5.66634V6.63302C14.4997 6.90635 14.273 7.13302 13.9997 7.13302H12.613C12.3797 7.13302 12.1664 7.21968 12.013 7.37968L12.0063 7.38635C11.8197 7.56635 11.733 7.81299 11.753 8.06633C11.7863 8.50633 12.213 8.85966 12.693 8.85966H13.9997C14.273 8.85966 14.4997 9.08633 14.4997 9.35966V10.3263C14.4997 12.6263 12.9597 14.1663 10.6663 14.1663ZM4.66634 2.83301C4.50634 2.83301 4.353 2.84633 4.19967 2.86633C2.733 3.053 1.83301 4.11967 1.83301 5.66634V10.333C1.83301 12.053 2.94634 13.1663 4.66634 13.1663H10.6663C12.3863 13.1663 13.4997 12.053 13.4997 10.333V9.86633H12.693C11.6863 9.86633 10.833 9.11967 10.753 8.15967C10.6997 7.613 10.8997 7.06635 11.2997 6.67969C11.6463 6.32635 12.113 6.13302 12.613 6.13302H13.4997V5.66634C13.4997 4.10634 12.5863 3.03299 11.1063 2.85966C10.9463 2.83299 10.8063 2.83301 10.6663 2.83301H4.66634V2.83301Z" fill="#353535"/>
</g>
</g>
</g>
</svg>
