<svg width="102" height="32" viewBox="0 0 102 32" fill="none" xmlns="http://www.w3.org/2000/svg">
<path d="M1 6.9729C1 6.91718 1.03207 6.88933 1.09622 6.88933C1.17938 6.88933 1.31124 6.94383 1.49181 7.05284C3.16918 8.10901 5.34668 8.63709 8.02431 8.63709C9.66367 8.63709 11.2615 8.34761 12.8177 7.76866C13.0909 7.6645 13.3736 7.49493 13.6658 7.25995C13.9082 7.03225 14.1541 6.80696 14.4036 6.5841L14.4321 6.5405C14.4321 6.4654 14.2812 6.40606 13.9795 6.36245C13.8132 6.32612 13.6373 6.30068 13.452 6.28615C13.3356 6.26677 13.2049 6.205 13.06 6.10083C12.8984 6.00151 12.8129 5.89251 12.8034 5.77381V5.49039C12.8034 5.02286 13.0089 4.51294 13.4199 3.96064C13.831 3.40833 14.2503 3.08978 14.678 3.005C14.9084 3.10431 15.0237 3.26056 15.0237 3.47373C15.0237 3.56821 14.9987 3.70265 14.9488 3.87706C14.8871 4.06359 14.8098 4.16533 14.7172 4.18229C14.5271 3.98365 14.4024 3.88433 14.343 3.88433C14.1885 3.88433 13.951 4.06722 13.6302 4.433C13.3118 4.79637 13.1527 5.06162 13.1527 5.22877C13.1527 5.28448 13.161 5.31961 13.1776 5.33414C13.351 5.45284 13.5114 5.52188 13.6587 5.54126C14.1387 5.61151 14.3917 5.65148 14.4178 5.66117C14.7101 5.75079 14.8562 5.93974 14.8562 6.22801C14.8562 6.68827 14.6566 7.14247 14.2574 7.59061C13.9058 7.96124 13.4972 8.24345 13.0315 8.43724C12.2997 8.73036 11.4741 8.97623 10.5546 9.17487C9.59715 9.38319 8.74895 9.48736 8.01005 9.48736C6.01906 9.48736 4.45216 9.26328 3.30936 8.81514C3.05039 8.69644 2.88883 8.62256 2.82468 8.59349C2.39227 8.29553 2.04777 8.04724 1.79117 7.8486C1.26372 7.38834 1 7.09644 1 6.9729Z" fill="#417F56"/>
<path d="M15.5868 0.795761C15.6462 0.403331 15.7412 0.152612 15.8719 0.0436033C15.8932 0.0678274 15.9111 0.0847842 15.9253 0.0944739C15.9871 0.431188 16.0607 0.97623 16.1463 1.7296C16.2318 2.48054 16.3031 3.1564 16.3601 3.75715C16.4195 4.35791 16.4492 4.67525 16.4492 4.70916C16.4492 4.77941 16.4314 4.89084 16.3957 5.04345C16.3625 5.19364 16.2924 5.29538 16.1855 5.34868C16.1094 4.73338 16.0334 4.12173 15.9574 3.5137C15.8837 2.90568 15.803 2.30734 15.7151 1.7187C15.6295 1.12763 15.5868 0.819985 15.5868 0.795761Z" fill="#417F56"/>
<path d="M18.8227 4.59652C18.8227 4.39788 18.9071 4.07812 19.0757 3.63724C19.2611 3.20606 19.4202 2.91294 19.5533 2.75791C19.8693 2.92748 20.095 3.07888 20.2304 3.21211C20.4157 3.4059 20.5084 3.65662 20.5084 3.96427C20.5084 4.53111 20.3183 4.93565 19.9382 5.1779C19.9097 5.22634 19.8241 5.26389 19.6816 5.29054C19.5414 5.31476 19.4321 5.32687 19.3537 5.32687C19.185 5.32687 19.0496 5.24693 18.9474 5.08705C18.8643 4.93929 18.8227 4.77578 18.8227 4.59652ZM19.2682 4.26223C19.2682 4.31794 19.3003 4.37608 19.3644 4.43664C19.4309 4.49478 19.4832 4.52385 19.5212 4.52385H19.6317C19.8645 4.52385 20.0154 4.47419 20.0843 4.37487C20.0843 4.19561 20.0237 4.03815 19.9026 3.9025C19.7814 3.76442 19.6448 3.68085 19.4927 3.65178C19.343 3.91582 19.2682 4.1193 19.2682 4.26223Z" fill="#417F56"/>
<path d="M20.7044 7.53611C20.7044 7.48766 20.8779 7.41378 21.2247 7.31446C21.7451 7.14004 22.1026 6.99349 22.2974 6.87479C22.661 6.65677 22.9092 6.40606 23.0423 6.12263C23.066 6.05238 23.0779 6.01241 23.0779 6.00272C23.0779 5.69508 23.0506 5.44436 22.996 5.25057C22.9674 5.16821 22.8558 4.93081 22.661 4.53838C22.6918 4.14595 22.7453 3.90977 22.8213 3.82983L22.9674 3.92067C23.1052 4.13868 23.1837 4.2598 23.2027 4.28403C23.2906 4.38335 23.4117 4.45602 23.5662 4.50204C23.7562 4.57956 23.8786 4.60621 23.9332 4.58198V5.33414C23.7479 5.34383 23.565 5.32203 23.3844 5.26874V5.6103C23.3844 6.06086 23.2573 6.48236 23.0031 6.87479C22.7512 7.26722 22.4257 7.54701 22.0266 7.71416C21.1451 7.7408 20.7044 7.68145 20.7044 7.53611Z" fill="#417F56"/>
<path d="M23.7907 4.58198C23.9119 4.58683 24.0889 4.53717 24.3217 4.433C24.5545 4.32884 24.6935 4.27676 24.7387 4.27676C24.8266 4.27676 24.9786 4.32763 25.1948 4.42937C25.411 4.53111 25.5845 4.58198 25.7152 4.58198V5.33414C25.5655 5.33414 25.3849 5.27843 25.1735 5.16699C24.962 5.05556 24.8171 4.99985 24.7387 4.99985C24.703 4.99985 24.5807 5.05556 24.3716 5.16699C24.1625 5.27843 23.9903 5.33414 23.8548 5.33414H23.7907V4.58198ZM24.7957 6.5732C24.9074 6.24133 25.0095 6.05844 25.1022 6.02453C25.1853 6.06813 25.2756 6.12263 25.373 6.18804C25.4752 6.27282 25.5453 6.34913 25.5833 6.41696C25.5096 6.7997 25.4051 6.99107 25.2697 6.99107C25.2198 6.99107 25.1295 6.93899 24.9988 6.83482C24.8967 6.72581 24.829 6.63861 24.7957 6.5732ZM23.9404 6.90749C23.9404 6.79364 24.0283 6.60833 24.2041 6.35155C24.4726 6.5405 24.6448 6.67373 24.7208 6.75125V6.77668C24.7208 6.86389 24.6971 6.97048 24.6496 7.09644C24.5949 7.22967 24.5415 7.29629 24.4892 7.29629C24.4298 7.29629 24.3229 7.24542 24.1685 7.14368C24.0164 7.04194 23.9404 6.96321 23.9404 6.90749Z" fill="#417F56"/>
<path d="M25.5548 4.58198C25.9397 4.58198 26.3519 4.53232 26.7914 4.433C27.2666 4.30946 27.6598 4.15806 27.9711 3.9788C27.3628 3.77048 27.0183 3.66631 26.9376 3.66631C26.8354 3.66631 26.6762 3.70265 26.46 3.77532C26.2462 3.84799 26.081 3.88433 25.9646 3.88433C26.081 3.46768 26.1499 3.25087 26.1713 3.23391C26.2331 3.11522 26.3887 2.98925 26.6382 2.85602C26.7237 2.80757 26.8425 2.78335 26.9946 2.78335C27.0587 2.78335 27.3213 2.88509 27.7822 3.08857C28.293 3.32112 28.5995 3.45435 28.7016 3.48827C29.2315 3.65299 29.7352 3.73535 30.2127 3.73535C30.2579 3.77411 30.2828 3.8056 30.2876 3.82983C30.2876 3.91945 30.2258 4.09629 30.1022 4.36033H29.9811C29.6579 4.36033 29.4144 4.3349 29.2505 4.28403L29.2291 4.3894L29.2505 4.51658C29.3479 4.6159 29.4916 4.66556 29.6817 4.66556C29.9668 4.66556 30.2341 4.6377 30.4836 4.58198V5.33414L29.7031 5.34868C29.513 5.35352 29.3562 5.29054 29.2327 5.15973C29.1115 5.02892 29.0509 4.86662 29.0509 4.67282C29.0509 4.64133 29.0557 4.59531 29.0652 4.53475C29.077 4.47176 29.083 4.42332 29.083 4.3894V4.28403C28.8573 4.28403 28.5935 4.33611 28.2918 4.44027C27.8784 4.59531 27.5553 4.72975 27.3224 4.8436C26.8663 5.03255 26.5919 5.13914 26.4992 5.16336C26.188 5.27721 25.9005 5.33414 25.6368 5.33414H25.5548V4.58198ZM27.3688 6.5623C27.4757 6.17956 27.5874 5.9785 27.7038 5.95912C27.7774 5.96881 27.8748 6.00878 27.996 6.07903C28.1481 6.17835 28.2241 6.26313 28.2241 6.33338C28.2241 6.38668 28.1991 6.47994 28.1493 6.61317C28.1017 6.73429 28.0507 6.81908 27.996 6.86752H27.9604C27.8677 6.86752 27.756 6.83482 27.6254 6.76942C27.4543 6.71612 27.3688 6.64708 27.3688 6.5623Z" fill="#417F56"/>
<path d="M30.1806 2.2274C30.2876 1.84466 30.3992 1.6436 30.5156 1.62422C30.5893 1.63391 30.6867 1.67388 30.8079 1.74413C30.9599 1.84345 31.036 1.92824 31.036 1.99849C31.036 2.05178 31.011 2.14504 30.9611 2.27827C30.9136 2.39939 30.8625 2.48418 30.8079 2.53263H30.7722C30.6796 2.53263 30.5679 2.49992 30.4372 2.43452C30.2662 2.38123 30.1806 2.31219 30.1806 2.2274ZM30.3624 4.58198C30.6926 4.58683 30.8791 4.51537 30.9219 4.3676C30.9077 4.30704 30.8494 4.19319 30.7473 4.02604C30.6594 3.88554 30.6083 3.76805 30.594 3.67358C30.6487 3.51612 30.714 3.3405 30.7901 3.14671H30.8221C30.929 3.14671 31.0312 3.30295 31.1286 3.61544C31.2308 3.88917 31.2819 4.10477 31.2819 4.26223C31.2819 4.60378 31.2284 4.85935 31.1215 5.02892C30.9932 5.2324 30.7734 5.33414 30.4622 5.33414H30.3624V4.58198Z" fill="#417F56"/>
<path d="M31.036 6.85299C31.687 6.81181 32.0707 6.77668 32.1871 6.74761C32.5316 6.63861 32.8678 6.4218 33.1956 6.0972C33.5259 5.7726 33.7492 5.43104 33.8656 5.07252C33.754 4.87388 33.6471 4.67888 33.5449 4.48751C33.3786 4.16775 33.2954 3.95821 33.2954 3.85889L33.3204 3.77896C33.3299 3.75958 33.3608 3.67964 33.413 3.53914C33.4534 3.41559 33.4926 3.35382 33.5306 3.35382C33.6423 3.35382 33.7742 3.51976 33.9262 3.85163C34.0807 4.13989 34.1579 4.3567 34.1579 4.50204C34.1579 5.46858 33.8704 6.24739 33.2954 6.83845C33.0246 7.10492 32.7454 7.23815 32.4579 7.23815C32.2869 7.23815 31.8533 7.17638 31.1571 7.05284C31.1381 7.0383 31.0977 6.99349 31.036 6.91839V6.85299ZM32.6183 2.56533C32.7252 2.18259 32.8369 1.98153 32.9533 1.96215C33.0269 1.97184 33.1244 2.01181 33.2455 2.08206C33.3976 2.18138 33.4736 2.26616 33.4736 2.33641C33.4736 2.3897 33.4487 2.48297 33.3988 2.6162C33.3513 2.73732 33.3002 2.8221 33.2455 2.87055H33.2099C33.1172 2.87055 33.0056 2.83785 32.8749 2.77244C32.7038 2.71915 32.6183 2.65011 32.6183 2.56533Z" fill="#417F56"/>
<path d="M26.0608 6.9729C26.0608 6.91718 26.0929 6.88933 26.1571 6.88933C26.2402 6.88933 26.3721 6.94383 26.5527 7.05284C28.23 8.10901 30.4075 8.63709 33.0852 8.63709C34.7245 8.63709 36.3223 8.34761 37.8785 7.76866C38.1517 7.6645 38.4345 7.49493 38.7267 7.25995C38.969 7.03225 39.2149 6.80696 39.4644 6.5841L39.4929 6.5405C39.4929 6.4654 39.3421 6.40606 39.0403 6.36245C38.874 6.32612 38.6982 6.30068 38.5129 6.28615C38.3965 6.26677 38.2658 6.205 38.1208 6.10083C37.9593 6.00151 37.8738 5.89251 37.8643 5.77381V5.49039C37.8643 5.02286 38.0698 4.51294 38.4808 3.96064C38.8918 3.40833 39.3112 3.08978 39.7388 3.005C39.9693 3.10431 40.0845 3.26056 40.0845 3.47373C40.0845 3.56821 40.0596 3.70265 40.0097 3.87706C39.9479 4.06359 39.8707 4.16533 39.778 4.18229C39.588 3.98365 39.4632 3.88433 39.4038 3.88433C39.2494 3.88433 39.0118 4.06722 38.6911 4.433C38.3727 4.79637 38.2135 5.06162 38.2135 5.22877C38.2135 5.28448 38.2218 5.31961 38.2385 5.33414C38.4119 5.45284 38.5723 5.52188 38.7196 5.54126C39.1995 5.61151 39.4525 5.65148 39.4787 5.66117C39.7709 5.75079 39.917 5.93974 39.917 6.22801C39.917 6.68827 39.7174 7.14247 39.3183 7.59061C38.9667 7.96124 38.558 8.24345 38.0923 8.43724C37.3606 8.73036 36.5349 8.97623 35.6155 9.17487C34.658 9.38319 33.8098 9.48736 33.0709 9.48736C31.0799 9.48736 29.513 9.26328 28.3702 8.81514C28.1112 8.69644 27.9497 8.62256 27.8855 8.59349C27.4531 8.29553 27.1086 8.04724 26.852 7.8486C26.3246 7.38834 26.0608 7.09644 26.0608 6.9729Z" fill="#417F56"/>
<path d="M40.4872 0.741257C40.5561 0.346404 40.6048 0.0993187 40.6333 0C40.6975 0.0581378 40.7415 0.162301 40.7652 0.31249C40.7961 0.380318 40.8187 0.489326 40.8329 0.639515C41.0753 2.44905 41.1988 3.39379 41.2036 3.47373C41.2725 3.9461 41.3259 4.21378 41.3639 4.27676C41.4708 4.48024 41.6752 4.58198 41.9769 4.58198V5.33414C41.5493 5.33414 41.2891 5.24936 41.1964 5.07979C41.1228 4.97562 41.0479 4.73823 40.9719 4.3676C40.9505 4.20288 40.9161 3.94731 40.8686 3.60091C40.6975 2.13293 40.5704 1.17971 40.4872 0.741257Z" fill="#417F56"/>
<path d="M41.8379 4.58198C42.0304 4.58198 42.2466 4.55049 42.4865 4.48751C42.774 4.41726 42.976 4.33732 43.0924 4.24769C42.9665 3.96911 42.9035 3.81287 42.9035 3.77896C42.9035 3.66995 42.9522 3.53793 43.0496 3.38289C43.1518 3.20121 43.2124 3.07525 43.2314 3.005C43.1625 2.96139 43.128 2.88388 43.128 2.77244C43.128 2.65859 43.1625 2.5302 43.2314 2.38728C43.2979 2.21771 43.3775 2.13293 43.4702 2.13293C43.7624 2.13293 44.101 2.36185 44.4859 2.81968C44.7923 3.17578 44.9527 3.36351 44.967 3.38289C45.1665 3.65662 45.2663 3.89039 45.2663 4.08418C45.2663 4.17381 45.176 4.3676 44.9955 4.66556C44.9432 4.73338 44.8482 4.7673 44.7104 4.7673C44.2447 4.7673 43.8954 4.70795 43.6626 4.58925C43.3846 4.74428 43.109 4.89811 42.8358 5.05072C42.4462 5.23967 42.1349 5.33414 41.9021 5.33414H41.8379V4.58198ZM44.0119 4.10598C44.4443 4.21983 44.7044 4.27676 44.7923 4.27676C44.8565 4.27676 44.8886 4.25254 44.8886 4.20409C44.8886 4.10477 44.7781 3.94126 44.5571 3.71355C44.3979 3.53914 44.2399 3.39985 44.0831 3.29569C44.1235 3.56215 44.0998 3.83225 44.0119 4.10598ZM43.128 3.79349C43.128 3.84921 43.1375 3.87948 43.1565 3.88433C43.3038 3.96669 43.4523 3.99818 43.602 3.9788C43.7636 3.8698 43.8444 3.75594 43.8444 3.63724C43.8444 3.53793 43.8194 3.44345 43.7695 3.35382C43.7172 3.26904 43.6495 3.22665 43.5664 3.22665C43.4927 3.22665 43.4013 3.30174 43.292 3.45193C43.1827 3.5997 43.128 3.71355 43.128 3.79349Z" fill="#417F56"/>
<path d="M35.9434 6.83845C35.9434 6.80212 35.9707 6.78395 36.0253 6.78395C36.0942 6.78395 36.2427 6.84693 36.4708 6.9729C37.73 7.6221 38.8099 8.05814 39.7103 8.281C40.7129 8.51839 41.8569 8.63709 43.1423 8.63709C45.1166 8.63709 46.6776 8.45057 47.8252 8.07752C48.9751 7.70689 49.847 7.0056 50.441 5.97366C50.441 5.65148 50.3412 5.29417 50.1416 4.90174C49.9421 4.50931 49.8423 4.29129 49.8423 4.24769C49.8423 4.15322 49.9052 3.94247 50.0312 3.61544C50.0217 3.50643 50.043 3.45193 50.0953 3.45193C50.1927 3.45193 50.3412 3.71718 50.5408 4.24769C50.7451 4.75397 50.8473 5.09432 50.8473 5.26874C50.9304 5.94216 50.6453 6.65556 49.992 7.40893C49.341 8.16472 48.298 8.72309 46.8629 9.08403C45.6085 9.33353 44.3944 9.45829 43.2207 9.45829C42.287 9.45829 41.4019 9.41105 40.5656 9.31658C39.4418 9.16154 38.5996 8.93505 38.0389 8.63709C37.7086 8.46995 37.3439 8.21923 36.9448 7.88493C36.7642 7.71779 36.5789 7.55912 36.3888 7.40893C36.0918 7.13762 35.9434 6.94746 35.9434 6.83845ZM48.57 1.7514C48.57 1.70295 48.6223 1.60121 48.7268 1.44618C48.8313 1.28872 48.8979 1.20999 48.9264 1.20999C48.9668 1.20999 49.0666 1.25238 49.2257 1.33717C49.3968 1.43649 49.4823 1.51764 49.4823 1.58062C49.4823 1.62665 49.4336 1.72354 49.3362 1.87131C49.2483 2.04088 49.1723 2.12566 49.1081 2.12566C49.0511 2.12566 48.9466 2.07721 48.7945 1.98032C48.6448 1.88342 48.57 1.80712 48.57 1.7514Z" fill="#417F56"/>
<path d="M51.3961 0.795761C51.4555 0.403331 51.5505 0.152612 51.6812 0.0436033C51.7026 0.0678274 51.7204 0.0847842 51.7347 0.0944739C51.7965 0.431188 51.8701 0.97623 51.9556 1.7296C52.0412 2.48054 52.1124 3.1564 52.1695 3.75715C52.2289 4.35791 52.2586 4.67525 52.2586 4.70916C52.2586 4.77941 52.2407 4.89084 52.2051 5.04345C52.1718 5.19364 52.1018 5.29538 51.9948 5.34868C51.9188 4.73338 51.8428 4.12173 51.7668 3.5137C51.6931 2.90568 51.6123 2.30734 51.5244 1.7187C51.4389 1.12763 51.3961 0.819985 51.3961 0.795761Z" fill="#417F56"/>
<path d="M52.0412 6.85299C52.6922 6.81181 53.0759 6.77668 53.1923 6.74761C53.5368 6.63861 53.873 6.4218 54.2009 6.0972C54.5311 5.7726 54.7544 5.43104 54.8708 5.07252C54.7592 4.87388 54.6523 4.67888 54.5501 4.48751C54.3838 4.16775 54.3006 3.95821 54.3006 3.85889L54.3256 3.77896C54.3351 3.75958 54.366 3.67964 54.4182 3.53914C54.4586 3.41559 54.4978 3.35382 54.5359 3.35382C54.6475 3.35382 54.7794 3.51976 54.9314 3.85163C55.0859 4.13989 55.1631 4.3567 55.1631 4.50204C55.1631 5.46858 54.8756 6.24739 54.3006 6.83845C54.0298 7.10492 53.7506 7.23815 53.4631 7.23815C53.2921 7.23815 52.8585 7.17638 52.1623 7.05284C52.1433 7.0383 52.1029 6.99349 52.0412 6.91839V6.85299Z" fill="#417F56"/>
<path d="M55.1453 6.79122C55.1643 6.77668 55.1999 6.76942 55.2522 6.76942H55.6121C56.1182 6.76942 56.4615 6.74519 56.6421 6.69674C56.8797 6.61681 57.1707 6.42786 57.5152 6.1299C57.8763 5.8271 58.0985 5.56185 58.1816 5.33414C57.7777 5.33414 57.5093 5.30628 57.3762 5.25057C57.1339 5.16821 57.0127 4.95746 57.0127 4.61832C57.0127 4.40515 57.0911 4.16533 57.2479 3.89886C57.4166 3.60091 57.5865 3.45193 57.7575 3.45193C57.8835 3.45193 58.0272 3.60818 58.1888 3.92067C58.3385 4.16291 58.4382 4.38335 58.4881 4.58198H58.677V5.33414H58.4133C58.38 5.67086 58.1935 6.04754 57.8538 6.46419C57.5069 6.85662 57.1731 7.11219 56.8523 7.23089C56.5649 7.18244 56.2358 7.12309 55.8652 7.05284C55.3852 6.94383 55.1453 6.85662 55.1453 6.79122ZM57.394 4.44027C57.5057 4.53475 57.6316 4.58198 57.7718 4.58198C57.7956 4.58198 57.8253 4.57714 57.8609 4.56745C57.8609 4.49235 57.8431 4.41847 57.8074 4.3458C57.7552 4.24648 57.697 4.19682 57.6328 4.19682C57.5164 4.19682 57.4368 4.27797 57.394 4.44027Z" fill="#417F56"/>
<path d="M58.5523 4.58198C58.6735 4.58683 58.8505 4.53717 59.0833 4.433C59.3161 4.32884 59.4551 4.27676 59.5003 4.27676C59.5882 4.27676 59.7402 4.32763 59.9564 4.42937C60.1726 4.53111 60.3461 4.58198 60.4768 4.58198V5.33414C60.3271 5.33414 60.1465 5.27843 59.9351 5.16699C59.7236 5.05556 59.5787 4.99985 59.5003 4.99985C59.4646 4.99985 59.3423 5.05556 59.1332 5.16699C58.9241 5.27843 58.7519 5.33414 58.6164 5.33414H58.5523V4.58198ZM59.4076 2.49992C59.5193 2.16805 59.6214 1.98516 59.7141 1.95125C59.7972 1.99485 59.8875 2.04936 59.9849 2.11476C60.0871 2.19955 60.1572 2.27585 60.1952 2.34368C60.1216 2.72642 60.017 2.91779 59.8816 2.91779C59.8317 2.91779 59.7414 2.86571 59.6107 2.76154C59.5086 2.65254 59.4409 2.56533 59.4076 2.49992ZM58.5523 2.83422C58.5523 2.72036 58.6402 2.53505 58.816 2.27827C59.0845 2.46722 59.2567 2.60045 59.3328 2.67797V2.70341C59.3328 2.79061 59.309 2.8972 59.2615 3.02316C59.2068 3.1564 59.1534 3.22301 59.1011 3.22301C59.0417 3.22301 58.9348 3.17214 58.7804 3.0704C58.6283 2.96866 58.5523 2.88993 58.5523 2.83422Z" fill="#417F56"/>
<path d="M60.3164 4.58198C60.6538 4.58198 60.9757 4.54201 61.2822 4.46207C61.7383 4.35307 62.0033 4.19682 62.0769 3.99334C62.1506 3.78986 62.2183 3.66389 62.28 3.61544C62.3014 3.62998 62.3121 3.66268 62.3121 3.71355C62.3121 3.87101 62.2682 4.08176 62.1803 4.3458C62.2468 4.37002 62.305 4.38213 62.3549 4.38213C62.8514 4.38213 63.1971 4.30704 63.392 4.15685C63.5131 4.05753 63.6058 3.89402 63.6699 3.66631C63.7317 3.4483 63.8279 3.31264 63.9586 3.25935L63.9764 3.28842C63.9859 3.30295 63.9907 3.31991 63.9907 3.33929C63.9907 3.41438 63.9586 3.59606 63.8945 3.88433C63.9634 3.99334 64.0335 4.05995 64.1047 4.08418C64.1261 4.08902 64.2307 4.11325 64.4184 4.15685L64.6037 4.08418C64.6037 4.03331 64.593 3.9788 64.5716 3.92067C64.5526 3.86011 64.5431 3.81771 64.5431 3.79349C64.5431 3.76442 64.5752 3.65057 64.6393 3.45193C64.7225 3.22422 64.764 3.1031 64.764 3.08857C64.8163 3.08857 64.8698 3.17214 64.9244 3.33929C64.9719 3.47252 64.9957 3.58153 64.9957 3.66631C64.9957 3.95942 64.9446 4.22468 64.8424 4.46207C64.707 4.77456 64.5122 4.93081 64.258 4.93081C64.132 4.93081 63.9182 4.83755 63.6165 4.65102C63.5428 4.8327 63.3706 4.9732 63.0997 5.07252C62.8907 5.14277 62.6685 5.1779 62.4333 5.1779C62.2005 5.1779 61.9842 5.14277 61.7847 5.07252C61.3238 5.24693 60.8937 5.33414 60.4946 5.33414H60.3164V4.58198Z" fill="#417F56"/>
<path d="M64.8781 6.85299C65.5291 6.81181 65.9128 6.77668 66.0292 6.74761C66.3737 6.63861 66.7099 6.4218 67.0378 6.0972C67.368 5.7726 67.5913 5.43104 67.7078 5.07252C67.5961 4.87388 67.4892 4.67888 67.387 4.48751C67.2207 4.16775 67.1376 3.95821 67.1376 3.85889L67.1625 3.77896C67.172 3.75958 67.2029 3.67964 67.2552 3.53914C67.2955 3.41559 67.3347 3.35382 67.3728 3.35382C67.4844 3.35382 67.6163 3.51976 67.7683 3.85163C67.9228 4.13989 68 4.3567 68 4.50204C68 5.46858 67.7125 6.24739 67.1376 6.83845C66.8667 7.10492 66.5875 7.23815 66.3001 7.23815C66.129 7.23815 65.6954 7.17638 64.9992 7.05284C64.9802 7.0383 64.9399 6.99349 64.8781 6.91839V6.85299Z" fill="#417F56"/>
<path d="M14.8121 25.3375H13.6265C12.1085 25.3375 10.7836 24.8612 9.65184 23.9088C8.59193 23.0205 7.83742 21.8299 7.38831 20.3371C7.1907 19.6777 6.75506 19.348 6.08139 19.348C5.68617 19.348 5.34934 19.4854 5.07089 19.7602C4.80142 20.0257 4.66669 20.3554 4.66669 20.7492C4.66669 21.143 4.80142 21.4819 5.07089 21.7658C5.34934 22.0405 5.68617 22.1779 6.08139 22.1779H8.25061V25.3375H6.2296C4.97208 25.3375 3.88523 24.9024 2.96904 24.0324C2.06183 23.1624 1.60823 22.068 1.60823 20.7492C1.60823 19.4946 2.04387 18.4231 2.91515 17.5347C3.78643 16.6464 4.84184 16.2022 6.08139 16.2022C7.04249 16.2022 7.92275 16.5044 8.72217 17.1089C9.52159 17.7042 10.0695 18.4734 10.3659 19.4167C10.9228 21.2575 12.0097 22.1779 13.6265 22.1779H14.8121V25.3375Z" fill="#417F56"/>
<path d="M20.6865 13.6608H19.1506C18.7284 13.6608 18.3646 13.5097 18.0592 13.2075C17.7538 12.8961 17.6011 12.5252 17.6011 12.0948C17.6011 11.6644 17.7538 11.2935 18.0592 10.9821C18.3646 10.6707 18.7284 10.515 19.1506 10.515C19.5727 10.515 19.932 10.6707 20.2284 10.9821C20.5338 11.2935 20.6865 11.6644 20.6865 12.0948V13.6608ZM25.995 25.3375H24.7959C23.5474 25.3375 22.3977 24.9482 21.3467 24.1698V25.3375H13.6265V22.1779H18.2613V16.2984H21.3467V18.2628C21.3467 19.3893 21.6656 20.3234 22.3033 21.0652C22.9411 21.807 23.7719 22.1779 24.7959 22.1779H25.995V25.3375Z" fill="#417F56"/>
<path d="M37.0702 25.3375H35.871C34.6225 25.3375 33.4728 24.9482 32.4218 24.1698V25.3375H24.7016V22.1779H29.3364V16.2984H32.4218V18.2628C32.4218 19.3893 32.7407 20.3234 33.3785 21.0652C34.0162 21.807 34.8471 22.1779 35.871 22.1779H37.0702V25.3375ZM34.5372 30.9285H32.9743C32.5521 30.9285 32.1883 30.7728 31.8829 30.4614C31.5865 30.1501 31.4383 29.7792 31.4383 29.3487C31.4383 28.9091 31.5865 28.5382 31.8829 28.236C32.1883 27.9338 32.5521 27.7827 32.9743 27.7827C33.4054 27.7827 33.7737 27.9338 34.0791 28.236C34.3845 28.5382 34.5372 28.9091 34.5372 29.3487V30.9285ZM31.0341 30.9285H29.4847C29.0535 30.9285 28.6852 30.7728 28.3798 30.4614C28.0834 30.1501 27.9352 29.7792 27.9352 29.3487C27.9352 28.9091 28.0834 28.5382 28.3798 28.236C28.6852 27.9338 29.0535 27.7827 29.4847 27.7827C29.9068 27.7827 30.2706 27.9338 30.576 28.236C30.8814 28.5382 31.0341 28.9091 31.0341 29.3487V30.9285Z" fill="#417F56"/>
<path d="M51.0825 25.3375H35.7767V22.1779H47.8219C47.5614 21.372 47.0944 20.7126 46.4207 20.1997C45.756 19.6869 44.9925 19.4305 44.1302 19.4305L39.5358 19.4442V16.2984H44.1302C46.0434 16.2984 47.6782 16.9898 49.0345 18.3727C50.3998 19.7464 51.0825 21.4132 51.0825 23.373V25.3375ZM43.1871 14.6774H41.6511C41.2289 14.6774 40.8652 14.5263 40.5598 14.2241C40.2544 13.9127 40.1017 13.5418 40.1017 13.1114C40.1017 12.6809 40.2544 12.31 40.5598 11.9986C40.8652 11.6873 41.2289 11.5316 41.6511 11.5316C42.0733 11.5316 42.4326 11.6873 42.729 11.9986C43.0344 12.31 43.1871 12.6809 43.1871 13.1114V14.6774Z" fill="#417F56"/>
<path d="M60.8433 25.3375H59.6442C58.4046 25.3375 57.2549 24.9482 56.195 24.1698V24.9253C56.195 26.9035 55.4944 28.5749 54.0932 29.9394C52.7009 31.3131 50.9584 32 48.8655 32V28.8542C50.114 28.8542 51.1335 28.4741 51.924 27.714C52.7234 26.9539 53.1231 26.0243 53.1231 24.9253V16.2984H56.195V18.2628C56.195 19.3893 56.5139 20.3234 57.1516 21.0652C57.7983 21.807 58.6292 22.1779 59.6442 22.1779H60.8433V25.3375Z" fill="#417F56"/>
<path d="M67.3644 25.3375H59.6442V22.1779H64.279V16.2984H67.3644V25.3375ZM67.4992 13.4411H65.9363C65.5141 13.4411 65.1503 13.2854 64.8449 12.974C64.5485 12.6626 64.4003 12.2917 64.4003 11.8613C64.4003 11.4217 64.5485 11.0508 64.8449 10.7486C65.1503 10.4463 65.5141 10.2952 65.9363 10.2952C66.3674 10.2952 66.7357 10.4463 67.0411 10.7486C67.3465 11.0508 67.4992 11.4217 67.4992 11.8613V13.4411ZM63.9961 13.4411H62.4467C62.0155 13.4411 61.6472 13.2854 61.3418 12.974C61.0454 12.6626 60.8972 12.2917 60.8972 11.8613C60.8972 11.4217 61.0454 11.0508 61.3418 10.7486C61.6472 10.4463 62.0155 10.2952 62.4467 10.2952C62.8688 10.2952 63.2326 10.4463 63.538 10.7486C63.8434 11.0508 63.9961 11.4217 63.9961 11.8613V13.4411Z" fill="#417F56"/>
<path d="M81.7531 19.2743C80.9044 18.9158 80.0556 18.6533 79.2834 18.058C79.979 18.0196 80.5087 18.3461 81.0958 18.4805C80.2598 17.7956 79.3664 17.1874 78.7155 16.2977C79.4047 16.7522 80.0939 17.2002 80.7831 17.6547C80.8023 17.6355 80.8214 17.6227 80.8342 17.6035C80.3683 17.117 79.9088 16.6369 79.443 16.1504C79.4621 16.1184 79.4813 16.0864 79.5004 16.0544C79.6919 16.1568 79.9152 16.2208 80.0684 16.3681C80.6874 16.9506 81.2809 17.5587 81.8808 18.1604C82.0403 18.3205 82.1807 18.4869 82.3594 18.6789C82.487 18.5573 82.5827 18.4549 82.6848 18.3717C82.8635 18.2372 82.8316 18.1092 82.7231 17.9428C81.9254 16.7393 80.8661 15.8048 79.6344 15.0942C78.69 14.5501 77.6689 14.1404 76.6861 13.6667C76.265 13.4619 75.8502 13.2443 75.429 13.033C75.4481 12.9818 75.4609 12.9306 75.48 12.8794C75.7927 12.9434 76.1118 13.001 76.4947 13.0778C75.8884 12.5593 75.2056 12.22 74.8227 11.5607C74.8419 11.5351 74.8546 11.5031 74.8738 11.4775C75.6396 11.9512 76.399 12.4249 77.2477 12.9498C76.6798 12.1752 76.1692 11.4839 75.6651 10.7926C75.6906 10.767 75.7161 10.7414 75.748 10.7157C76.0097 10.9718 76.2841 11.2086 76.5266 11.4775C77.1775 12.2072 77.7902 12.9754 78.4666 13.6731C78.7793 13.9932 79.2069 14.198 79.577 14.4605C80.0811 14.8126 80.5789 15.171 81.1277 15.5615C81.0894 15.4463 81.0767 15.3695 81.0384 15.3119C79.9854 13.5323 78.8304 11.8168 77.3626 10.3445C77.1073 10.0884 76.7627 9.90278 76.4309 9.74915C75.8629 9.4931 75.263 9.30106 74.6823 9.07702C74.3313 8.94259 73.9867 8.78896 73.7442 8.4817C73.757 8.44329 73.7697 8.41128 73.7825 8.37288C74.2867 8.5009 74.7972 8.63533 75.3013 8.76336C74.3122 7.86718 73.2337 7.06061 72.57 5.85717C73.4698 6.59972 74.3696 7.34227 75.263 8.09122C75.2886 8.07202 75.3141 8.04641 75.3332 8.02721C74.8482 7.33587 74.3632 6.63813 73.8846 5.94679C73.9165 5.91478 73.9484 5.88278 73.9803 5.85077C74.1335 5.9788 74.3122 6.08762 74.4334 6.24125C74.9567 6.91978 75.4353 7.64313 75.9905 8.30246C76.4628 8.85937 77.0244 9.34587 77.5157 9.88358C77.9688 10.3765 78.3836 10.9014 78.8112 11.4135C78.875 11.4903 78.9452 11.5735 79.009 11.6503C79.0346 11.6375 79.0601 11.6247 79.092 11.6055C79.009 11.4135 78.9261 11.215 78.8367 11.0294C78.4155 10.1524 78.0454 9.23705 77.5477 8.40488C76.8712 7.27826 76.0416 6.26045 74.9759 5.4667C74.7015 5.26185 74.3505 5.17224 74.025 5.03781C73.54 4.83297 73.0167 4.69854 72.6211 4.25045C73.1954 4.11603 73.6549 4.5001 74.2611 4.59612C73.7315 4.02001 72.9529 3.80876 72.6976 3.09182C72.7232 3.05341 72.7423 3.0214 72.7678 2.983C73.0167 3.12383 73.272 3.27106 73.5655 3.43749C73.3358 3.02781 73.1252 2.65653 72.921 2.27886C72.9401 2.25965 72.9593 2.24045 72.9784 2.22125C73.1124 2.33007 73.2656 2.41969 73.3677 2.54771C74.025 3.37348 74.6568 4.21844 75.3205 5.03141C75.9012 5.74195 76.5138 6.43329 77.1584 7.10542C76.9286 6.57412 76.718 6.03641 76.4628 5.5179C76.1437 4.85857 75.9076 4.15443 75.3715 3.62313C74.644 2.90618 73.9293 2.18284 73.2146 1.45309C73.0103 1.24185 72.838 1.005 72.6913 0.736147C73.5528 1.14583 74.1399 1.88838 74.8291 2.5093C74.8546 2.4901 74.8801 2.4773 74.9057 2.45809C74.5164 1.65793 74.1271 0.864173 73.7315 0.0640128C73.7634 0.044809 73.8017 0.0192038 73.8336 0C74.4526 0.921784 75.078 1.84357 75.697 2.76535C75.7161 2.75895 75.7417 2.75255 75.7608 2.74615C75.6396 2.08682 75.5183 1.43389 75.4034 0.774555C75.4417 0.761753 75.48 0.74895 75.5183 0.742549C75.5694 0.876976 75.6332 1.005 75.6587 1.14583C75.78 1.74115 75.8502 2.34927 76.0225 2.92539C76.2458 3.65513 76.5457 4.35927 76.8329 5.06341C76.9925 5.46029 77.1967 5.84437 77.4328 6.22845C77.4583 5.01861 77.0946 3.82797 77.235 2.61813C77.2732 2.61172 77.3052 2.60532 77.3434 2.59252C77.4519 2.88058 77.554 3.16863 77.6625 3.45669C77.6817 3.45669 77.7008 3.45669 77.72 3.45669C77.8157 2.93179 77.9114 2.40048 78.0199 1.82437C78.3262 2.04201 78.3071 2.28526 78.2815 2.5093C78.173 3.43749 78.0518 4.36567 77.9369 5.28746C77.9242 5.37708 77.9369 5.4667 77.9688 5.56271C78.3198 4.9802 78.4538 4.28886 78.9261 3.78956C78.958 3.79596 78.9899 3.80876 79.0154 3.81516C79.009 3.91118 79.0218 4.0136 78.9899 4.09682C78.8304 4.58332 78.6708 5.06341 78.4921 5.54351C78.1986 6.32447 78.039 7.12463 78.1794 7.95039C78.256 8.39208 78.4602 8.81456 78.6453 9.23065C79.1111 10.2933 79.5898 11.3495 80.0811 12.3993C80.3045 12.8794 80.5598 13.3403 80.8023 13.814C80.8406 13.8076 80.8725 13.7948 80.9108 13.7884C80.8661 13.5323 80.8406 13.2699 80.7831 13.0138C80.6363 12.3993 80.4704 11.7848 80.3173 11.1702C80.1705 10.5941 80.0109 10.0244 79.8897 9.44189C79.8195 9.09622 79.8067 8.73775 79.7684 8.38568C79.8131 8.37288 79.8514 8.36647 79.8961 8.35367C80.0556 8.73135 80.2215 9.11543 80.413 9.57632C80.5215 8.92339 80.6172 8.34727 80.7129 7.77116C80.7448 7.77116 80.7767 7.77756 80.8023 7.77756C80.8469 8.55851 80.8916 9.34587 80.9427 10.1268C80.9682 10.1332 80.9937 10.1332 81.0256 10.1396C81.249 9.64033 81.3064 9.05781 81.8233 8.68654C81.785 8.91698 81.7595 9.14103 81.7084 9.37148C81.5234 10.1972 81.2745 11.0166 81.1532 11.8552C81.0894 12.3161 81.2234 12.8026 81.2936 13.2763C81.3894 13.8972 81.4021 14.5629 81.651 15.1134C82.0786 16.0544 82.6657 16.9186 83.2081 17.8596C83.3677 17.7059 83.457 17.6099 83.5591 17.5203C83.7123 17.3859 83.7123 17.2579 83.6357 17.0722C83.3549 16.4193 83.0869 15.76 82.8316 15.1006C82.755 14.8958 82.7423 14.6717 82.704 14.4541C82.7423 14.4413 82.7742 14.4221 82.8125 14.4093C83.0294 14.819 83.2528 15.2222 83.5208 15.7215C83.4698 14.7101 83.2145 13.7884 83.4889 12.8602C83.859 13.4555 83.7314 14.1788 83.9867 14.8894C84.1335 14.3709 84.2611 13.9228 84.3887 13.4619C84.7078 13.5515 84.7078 13.75 84.6631 13.9548C84.5419 14.5565 84.4015 15.1582 84.2802 15.76C84.2292 16.0288 84.21 16.3041 84.1845 16.5793C84.1781 16.6433 84.2292 16.7073 84.2675 16.829C85.6778 15.4399 87.0562 14.0828 88.4346 12.7257C87.7263 11.932 87.4902 11.023 87.7199 10.0308C87.8093 9.65313 88.0071 9.25625 88.2687 8.9746C90.732 6.27966 93.2208 3.60392 95.7033 0.921786C95.7288 0.88978 95.7671 0.870575 95.799 0.84497C96.2266 1.08822 96.284 1.39548 95.9777 1.74755C94.1015 3.91118 92.2189 6.07482 90.3491 8.24485C90.2215 8.39208 90.0492 8.55211 90.2534 8.76975C90.4257 8.94899 90.7639 8.9874 90.9554 8.82097C91.2234 8.57772 91.4723 8.31527 91.7275 8.05921C93.5335 6.22205 95.3459 4.38488 97.1519 2.54771C97.2285 2.4709 97.2859 2.38128 97.3497 2.31086C97.8284 2.56691 97.8922 2.87418 97.5667 3.24545C95.7097 5.38348 93.8526 7.52791 92.002 9.66593C91.8488 9.83877 91.6063 10.018 91.8807 10.2805C92.0785 10.4725 92.4231 10.4405 92.6529 10.21C93.7122 9.13463 94.7652 8.04641 95.8373 6.9774C96.8966 5.92759 97.9687 4.89698 99.06 3.84077C99.411 4.02 99.4812 4.35287 99.1812 4.69854C97.3178 6.84297 95.4544 8.9938 93.591 11.1446C93.4506 11.3047 93.1889 11.4647 93.4378 11.7335C93.642 11.9576 93.9803 11.9448 94.2355 11.6951C95.0332 10.895 95.8245 10.0884 96.6158 9.28186C97.8603 8.0144 99.1047 6.74055 100.355 5.47309C100.432 5.39628 100.509 5.33227 100.655 5.19144C100.783 5.44749 100.892 5.66513 101 5.88918C100.253 6.69574 99.5259 7.4895 98.7984 8.27686C97.0689 10.146 95.3204 11.996 93.6229 13.8908C92.5827 15.0558 90.9618 15.0814 89.9726 14.1084C89.9407 14.0764 89.9088 14.0572 89.8514 14.0124C89.7493 14.134 89.6408 14.2493 89.545 14.3709C88.6261 15.4655 87.7071 16.5601 86.7882 17.6419C86.6478 17.8084 86.6095 17.9492 86.6861 18.1604C86.8392 18.6021 86.9541 19.0566 87.0945 19.5047C87.12 19.5943 87.1711 19.6775 87.2413 19.7608C87.3434 19.031 87.069 18.2821 87.4136 17.4947C87.5029 17.802 87.605 18.0388 87.637 18.2821C87.7199 18.9798 87.7518 19.6775 87.8475 20.3753C87.9752 21.3035 88.1602 22.2252 88.7091 23.019C89.2004 23.736 89.6663 24.4785 90.1896 25.1762C90.4129 25.4771 90.732 25.7139 91.0256 25.9572C91.7148 26.5269 92.4104 27.0838 93.106 27.6471C93.1698 27.6983 93.24 27.7304 93.3357 27.788C92.6401 26.9558 91.9381 26.1748 91.3 25.3427C90.6618 24.5169 89.9471 23.7423 89.5068 22.7822C89.5387 22.7566 89.577 22.7246 89.6089 22.6989C90.0556 23.2303 90.5023 23.7552 91 24.3377C90.6427 23.4735 90.3172 22.6797 89.9918 21.8796C90.03 21.8604 90.0683 21.8476 90.1066 21.8284C90.6172 22.8078 91.032 23.8448 91.7467 24.7089C91.6318 23.96 91.517 23.2174 91.4021 22.4685C91.8424 22.7886 91.8679 23.2559 91.97 23.6847C92.0785 24.1584 92.1679 24.6385 92.2572 25.1186C92.3912 25.8228 92.6529 26.4565 93.1762 26.975C93.8718 27.6727 94.4908 28.4729 95.2502 29.0938C96.0287 29.7275 96.9222 30.2204 97.7901 30.7389C98.4665 31.1358 99.1812 31.4751 99.8768 31.8336C99.9407 31.8656 99.9981 31.9104 100.024 32C99.5897 31.8208 99.1302 31.6735 98.7154 31.4559C97.5859 30.8542 96.4818 30.1948 95.3459 29.5995C94.2674 29.0362 93.1826 28.4537 92.0466 28.0184C91.4212 27.7816 90.6873 27.8264 90.0045 27.7688C89.5068 27.7239 89.009 27.7303 88.5112 27.6855C88.3389 27.6727 88.173 27.5831 88.0071 27.4743C88.5559 27.1542 89.143 27.3399 89.7173 27.2374C88.9069 26.9878 88.1028 26.7381 87.2923 26.4885C87.2987 26.4501 87.3051 26.4181 87.3179 26.3797C87.6178 26.2068 87.9305 26.2901 88.2432 26.3605C88.5431 26.4245 88.8431 26.5077 89.1621 26.5141C88.4091 26.0532 87.6561 25.5859 86.9031 25.125C87.688 25.2018 88.3517 25.5667 89.0218 25.9124C89.8003 26.3221 90.5597 26.7766 91.3383 27.1926C91.6701 27.3655 92.0275 27.4935 92.3721 27.6407C92.3912 27.6151 92.404 27.5895 92.4231 27.5639C92.187 27.3655 91.9509 27.1734 91.7148 26.9686C90.1896 25.6371 88.4474 24.6449 86.6287 23.7936C86.1756 23.5823 85.6204 23.5823 85.1098 23.4735C84.6121 23.3711 84.1143 23.2751 83.6229 23.1534C83.4698 23.115 83.3294 23.0062 83.1315 22.9038C83.6229 22.6093 84.0696 22.8974 84.5929 22.8462C84.0505 22.5645 83.5783 22.3277 83.0869 22.078C82.5955 22.6605 82.1105 23.2366 81.6255 23.8128C79.5451 26.2965 77.4647 28.7738 75.3843 31.2575C74.8674 31.872 74.2101 32.0832 73.4379 31.8784C72.653 31.6671 72.2126 31.123 72.0531 30.3293C71.8872 29.5099 72.1105 28.8442 72.7168 28.2489C75.6587 25.3747 78.5815 22.4877 81.5106 19.6007C81.5553 19.4855 81.6383 19.3895 81.7531 19.2743ZM86.4053 18.0516C85.9969 18.5317 85.6267 18.9542 85.2758 19.3959C85.2183 19.4663 85.2183 19.6391 85.263 19.7287C85.7161 20.6505 86.3096 21.4763 87.0243 22.2124C87.2158 22.4109 87.3817 22.6349 87.5667 22.8334C87.7965 23.083 88.0454 23.3135 88.2879 23.5567C88.3262 23.5247 88.3645 23.4991 88.4027 23.4671C88.0709 22.8846 87.7391 22.2957 87.4008 21.7131C86.935 20.9066 86.4564 20.1 86.0033 19.2871C85.9203 19.1398 85.9267 18.935 85.8884 18.7558C85.9331 18.7365 85.9777 18.7173 86.0224 18.6981C86.3032 19.1526 86.5904 19.6071 86.8712 20.0552C86.8967 20.0424 86.9158 20.036 86.9414 20.0232C86.7754 19.3959 86.5968 18.7558 86.4053 18.0516ZM83.8016 21.1498C85.0333 22.5133 86.6031 23.2687 88.1858 24.0176C86.9031 22.859 85.8373 21.4571 84.2675 20.5865C84.1143 20.7786 83.9611 20.9642 83.8016 21.1498Z" fill="#417F56"/>
</svg>
